# xmcd
#
# Track frame offsets: 
#        150
#        23447
#        47275
#        69612
#        88882
#        110741
#        126582
#        140173
#        161613
#
# Disc length: 2310 seconds
#
# Revision: 0
# Processed by: cddbd v1.5.2PL0 Copyright (c) Steve Scherf et al.
# Submitted via: ExactAudioCopyFreeDBPlugin 1.0
#
DISCID=7e090409
DTITLE=Billy Ray Cyrus - The Snakedoctor Circus
DYEAR=2019
DGENRE=Country
TTITLE0=Guns, Gold And Guitars
TTITLE1=The Reckoning
TTITLE2=Barely Enough
TTITLE3=Goddess Of Democracy
TTITLE4=I Think Your Time's Has Come
TTITLE5=The Blood Of The Devil
TTITLE6=Angel In My Pocket
TTITLE7=Take It Easy Greazy
TTITLE8=I've Been Around
EXTD=
EXTT0=
EXTT1=
EXTT2=
EXTT3=
EXTT4=
EXTT5=
EXTT6=
EXTT7=
EXTT8=
PLAYORDER=
